<?xml version="1.0" standalone="no"?>
<!DOCTYPE svg PUBLIC "-//W3C//DTD SVG 20010904//EN"
 "http://www.w3.org/TR/2001/REC-SVG-20010904/DTD/svg10.dtd">
<svg version="1.0" xmlns="http://www.w3.org/2000/svg"
 width="640.000000pt" height="1280.000000pt" viewBox="0 0 640.000000 1280.000000"
 preserveAspectRatio="xMidYMid meet">
<g transform="translate(0.000000,1280.000000) scale(0.100000,-0.100000)"
fill="#03a9f4" stroke="none">
<path d="M5421 12716 c-2 -153 -87 -447 -190 -661 -144 -299 -285 -385 -410
-250 -52 57 -91 136 -162 329 -71 194 -102 248 -199 347 -85 87 -157 136 -248
169 -53 19 -75 22 -155 18 -50 -3 -109 -12 -129 -21 -36 -15 -39 -15 -90 13
-29 16 -89 39 -133 52 -71 20 -102 23 -265 23 -209 0 -252 -7 -378 -66 -139
-64 -232 -179 -277 -344 -30 -111 -30 -368 1 -541 6 -31 3 -34 -94 -97 -146
-96 -156 -117 -97 -204 19 -29 35 -55 35 -58 0 -3 -25 -49 -56 -102 -31 -53
-99 -183 -151 -287 -52 -105 -106 -205 -120 -223 -31 -41 -115 -83 -165 -83
-21 0 -68 13 -105 30 -149 68 -311 96 -374 66 -60 -29 -153 -116 -210 -199
-43 -62 -62 -82 -80 -82 -19 0 -31 -15 -64 -80 -45 -89 -85 -145 -205 -291
-91 -110 -102 -130 -94 -173 8 -37 11 -32 -226 -331 -240 -304 -323 -414 -407
-541 -64 -98 -68 -107 -67 -159 1 -84 81 -290 146 -373 61 -78 282 -342 367
-437 229 -257 621 -665 701 -731 36 -29 92 -78 125 -108 78 -71 112 -91 156
-91 29 0 211 53 412 120 26 9 30 5 104 -103 43 -61 90 -126 105 -143 l27 -31
-40 -133 c-42 -139 -68 -196 -144 -326 -25 -42 -44 -78 -42 -80 2 -2 20 11 42
28 l38 32 -7 -35 c-7 -42 1 -55 24 -34 8 8 32 21 53 30 l37 15 0 -80 c0 -60 3
-79 12 -74 8 5 9 2 3 -12 -21 -51 -46 -141 -59 -216 -29 -159 -149 -1314 -186
-1793 -20 -265 -43 -358 -118 -495 -81 -148 -245 -375 -407 -565 -61 -71 -126
-149 -144 -172 -34 -44 -144 -268 -211 -429 -63 -151 -87 -232 -195 -649 -96
-370 -193 -626 -344 -904 -48 -90 -55 -146 -46 -379 12 -271 9 -336 -16 -434
-24 -93 -21 -127 17 -224 46 -113 123 -152 276 -141 115 9 216 42 254 83 41
43 59 115 50 201 -8 75 -20 128 -69 308 -50 181 -81 442 -74 630 6 184 29 257
130 415 41 63 134 216 207 340 175 296 239 390 448 663 95 125 208 278 249
340 88 132 188 331 237 473 44 129 82 205 196 384 161 254 309 576 435 940
205 592 321 956 389 1215 18 72 38 129 44 128 11 -3 17 38 27 182 10 132 11
135 53 135 20 0 80 7 134 16 54 9 100 15 102 13 3 -2 16 -58 31 -124 56 -248
76 -273 112 -136 12 46 24 85 26 87 2 3 8 -37 12 -88 10 -135 27 -272 79 -633
72 -496 89 -570 205 -872 82 -215 149 -439 191 -643 35 -164 49 -279 60 -485
19 -372 33 -440 171 -845 256 -752 297 -887 339 -1135 24 -144 25 -266 5 -450
-29 -261 -41 -327 -80 -442 -14 -39 -25 -91 -25 -115 0 -50 -26 -107 -72 -161
-31 -37 -33 -43 -36 -133 -3 -80 -1 -100 18 -139 44 -91 144 -145 269 -145 99
0 162 21 216 74 71 69 84 120 98 390 15 292 15 550 -1 646 -8 42 -30 113 -54
165 -33 73 -41 104 -44 165 -21 379 -55 1114 -64 1365 -6 171 -15 346 -21 390
-21 164 -81 350 -190 588 -77 167 -81 187 -69 344 9 115 70 1031 101 1518 18
276 16 912 -3 993 l-15 62 59 0 58 0 -40 51 c-57 72 -140 223 -226 409 -92
201 -162 309 -279 426 -107 108 -180 163 -295 222 -77 39 -200 141 -200 164 0
5 11 13 24 19 19 9 45 4 146 -31 139 -48 186 -49 251 -6 30 21 43 41 78 130
32 78 66 138 134 233 159 224 314 458 345 519 40 80 141 344 163 425 9 37 21
103 24 147 7 78 7 81 -18 106 l-26 26 24 0 c13 0 54 -16 92 -35 197 -100 392
-79 453 48 11 23 15 33 8 22 -27 -43 -86 -91 -125 -103 -22 -7 -74 -12 -114
-12 -137 1 -259 63 -436 222 -85 76 -293 291 -293 303 0 2 38 -20 84 -50 196
-128 365 -163 486 -100 42 22 105 80 130 120 19 31 24 33 98 40 42 3 103 13
135 21 57 15 167 59 167 67 0 2 -44 -11 -98 -29 -69 -24 -123 -35 -187 -39
l-90 -6 60 33 c69 37 194 156 219 208 l17 35 -23 -30 c-50 -67 -126 -140 -182
-177 -68 -44 -80 -47 -73 -15 3 12 8 40 12 62 6 39 5 38 -23 -20 -16 -33 -36
-66 -45 -74 -23 -19 -98 -8 -199 29 -200 73 -374 210 -486 383 -44 68 -102
186 -102 208 0 6 18 -5 40 -24 22 -19 76 -54 120 -78 45 -24 115 -70 158 -101
217 -162 373 -187 582 -94 30 13 74 32 98 42 31 13 65 43 125 113 86 99 131
156 160 204 30 47 10 29 -39 -35 -67 -88 -128 -158 -136 -158 -5 0 -8 15 -8
33 0 41 -10 77 -21 77 -5 0 -9 -10 -9 -22 -1 -39 -36 -104 -72 -131 -60 -46
-113 -60 -228 -60 -116 0 -218 22 -319 71 l-56 27 86 6 c172 14 321 72 439
173 36 31 99 79 140 108 149 103 251 241 265 358 l5 45 -15 -54 c-24 -86 -73
-167 -143 -236 -77 -78 -103 -87 -36 -12 72 79 121 162 151 251 51 159 41 400
-27 601 l-20 60 5 -45 c3 -25 10 -83 15 -130 23 -198 5 -381 -48 -494 -27 -57
-91 -136 -110 -136 -4 0 3 51 16 113 21 102 31 264 21 367 -1 14 4 66 11 115
14 96 8 312 -9 375 -8 27 -8 19 -3 -35 61 -624 -243 -1083 -697 -1052 -86 6
-174 30 -232 64 -51 30 -108 145 -194 391 -36 104 -40 120 -23 105 11 -10 53
-85 93 -168 40 -82 92 -176 116 -208 106 -143 273 -191 440 -127 156 59 252
196 264 376 3 47 2 61 -4 44 -5 -14 -9 -39 -10 -56 -2 -58 -40 -159 -81 -217
-72 -101 -184 -157 -311 -157 -163 0 -267 83 -381 306 -38 72 -68 134 -68 137
0 4 26 -12 57 -33 31 -22 79 -47 107 -55 248 -74 636 148 795 455 61 117 82
209 82 360 1 121 -32 399 -52 445 -7 16 -8 13 -4 -10 20 -117 45 -360 45 -431
0 -218 -76 -401 -235 -560 -134 -135 -278 -218 -433 -249 -175 -36 -297 19
-433 193 -45 56 -48 64 -24 47 198 -130 251 -151 362 -142 86 7 189 58 274
136 131 120 265 349 316 538 23 85 26 118 27 253 0 138 -3 167 -28 268 -15 62
-30 111 -33 109 -2 -3 1 -51 8 -108 16 -145 7 -392 -19 -490 -21 -78 -73 -192
-93 -204 -8 -6 -8 -2 0 13 20 38 50 185 62 309 10 94 10 143 1 216 -20 158
-27 145 -28 -51 -1 -169 -3 -197 -27 -287 -61 -229 -208 -447 -342 -506 -66
-29 -163 -36 -204 -14 -41 21 -33 28 44 44 33 7 101 32 150 56 225 108 348
325 371 656 7 94 -8 288 -26 359 -8 31 -9 29 -4 -15 25 -229 21 -409 -11 -541
-9 -38 -37 -111 -61 -162 -78 -162 -205 -273 -377 -327 -107 -34 -121 -31 -53
10 88 53 135 94 182 157 60 82 96 163 172 388 l66 195 1 145 c0 115 -4 152
-17 180 l-16 35 -1 -59z m-2622 -1054 c1 -13 -20 -48 -51 -85 -29 -35 -63 -77
-74 -93 l-21 -29 -21 25 c-12 14 -26 37 -32 52 -15 34 4 64 61 98 22 14 59 39
82 56 45 33 55 29 56 -24z m1986 -344 c26 -79 65 -178 86 -221 38 -75 39 -77
14 -61 -14 9 -30 25 -35 34 -22 42 -72 192 -90 271 -11 47 -22 93 -26 102 -3
9 -4 17 -1 17 3 0 27 -64 52 -142z m1085 -94 c-31 -131 -98 -253 -190 -344
-93 -93 -149 -124 -265 -145 -162 -31 -259 -1 -364 110 -33 36 -65 75 -72 86
-10 20 -9 21 7 14 103 -45 162 -58 264 -57 210 1 373 85 496 257 48 68 120
213 132 267 6 28 7 22 10 -34 2 -43 -5 -99 -18 -154z m-1008 -216 c51 -103
117 -188 187 -236 32 -23 64 -42 69 -42 6 0 14 -5 17 -10 9 -15 -38 -3 -107
28 -96 41 -154 118 -197 256 -24 78 -24 76 -13 76 4 0 24 -33 44 -72z m117
-101 c55 -80 106 -129 176 -166 24 -13 30 -19 15 -15 -83 22 -182 105 -252
213 -26 40 -48 78 -48 83 0 21 59 -41 109 -115z m-228 -237 c99 -295 342 -535
635 -626 47 -15 83 -28 81 -30 -2 -3 -37 0 -77 6 -141 20 -262 85 -384 205
-126 124 -235 302 -285 465 -20 64 -20 64 -1 40 11 -14 25 -41 31 -60z m476
44 c-3 -3 -12 -4 -19 -1 -8 3 -5 6 6 6 11 1 17 -2 13 -5z m66 -11 c-7 -2 -21
-2 -30 0 -10 3 -4 5 12 5 17 0 24 -2 18 -5z m-307 -480 c84 -84 186 -153 281
-190 55 -21 86 -26 161 -27 l93 -1 -27 -22 c-72 -57 -208 -57 -330 1 -61 29
-94 54 -153 114 -42 43 -91 103 -109 134 -30 50 -112 229 -112 244 0 3 28 -37
62 -88 34 -51 95 -125 134 -165z m180 233 c176 -62 351 -95 442 -82 61 8 44
-8 -30 -29 -141 -39 -278 -13 -419 81 -94 62 -94 65 7 30z m-698 -113 c65 -97
242 -379 242 -388 0 -3 -27 13 -60 37 -46 32 -59 46 -54 60 7 24 -29 81 -70
113 -21 16 -38 41 -45 67 -7 23 -30 79 -51 125 -22 46 -35 81 -31 78 5 -2 36
-44 69 -92z m378 -348 c179 -195 333 -345 419 -409 20 -15 19 -15 -5 -15 -33
0 -34 0 -283 183 l-216 158 -88 142 c-47 77 -118 188 -157 246 -39 57 -75 111
-79 120 -15 27 193 -188 409 -425z m-3404 -420 c23 -19 70 -44 105 -56 79 -26
87 -37 213 -294 133 -272 145 -327 111 -522 -27 -157 -28 -247 -1 -290 27 -45
58 -43 183 11 106 46 187 66 269 66 l47 0 52 -72 c67 -94 122 -212 148 -316
21 -85 45 -343 39 -420 l-3 -43 -60 44 c-33 24 -81 52 -106 62 l-47 17 -287
-72 c-300 -75 -331 -79 -394 -46 -39 21 -94 82 -254 279 -125 155 -162 210
-277 410 -150 261 -291 491 -334 544 -16 19 -45 42 -64 50 -40 17 -57 -9 133
203 223 250 455 480 482 480 3 0 23 -16 45 -35z m2703 -80 c84 -120 255 -275
473 -428 45 -32 82 -60 82 -63 0 -20 -96 -386 -135 -513 -25 -81 -63 -162 -83
-177 -34 -26 -106 -34 -164 -19 -172 45 -209 54 -264 65 -58 11 -128 10 -184
-4 -22 -6 -30 1 -72 64 l-47 71 20 20 c16 16 20 28 15 52 -4 18 -11 152 -16
299 -4 146 -12 286 -15 311 -10 67 7 92 162 231 l32 29 108 -104 c123 -118
297 -271 330 -288 36 -19 35 -13 -3 22 -76 65 -300 327 -281 327 2 0 33 -37
70 -82 118 -148 332 -345 428 -393 68 -35 74 -25 7 13 -66 37 -254 198 -338
289 -57 62 -172 210 -212 274 -9 14 -13 31 -9 38 6 8 20 -5 46 -41 56 -77 189
-240 215 -263 13 -11 -16 27 -64 85 -134 159 -179 226 -171 251 8 24 6 26 70
-66z m492 -157 c37 -36 81 -77 97 -90 l29 -25 -18 -51 c-18 -50 -19 -51 -38
-34 -54 48 -222 294 -255 372 -12 31 -6 26 51 -36 36 -39 96 -100 134 -136z
m181 -16 c6 -18 -15 -14 -22 4 -4 10 -1 14 6 12 6 -2 14 -10 16 -16z m-721
-1243 c-14 -8 -22 -8 -30 0 -8 8 -3 11 19 11 25 -1 27 -2 11 -11z m-1674 -697
c43 -30 81 -60 83 -67 3 -7 -1 -36 -8 -65 l-14 -52 -65 98 c-106 161 -106 159
-89 149 8 -4 50 -33 93 -63z"/>
<path d="M4330 9196 c0 -2 8 -10 18 -17 15 -13 16 -12 3 4 -13 16 -21 21 -21
13z"/>
</g>
</svg>
